<?xml version="1.0" standalone="no"?>
<!DOCTYPE svg PUBLIC "-//W3C//DTD SVG 20010904//EN"
 "http://www.w3.org/TR/2001/REC-SVG-20010904/DTD/svg10.dtd">
<svg version="1.0" xmlns="http://www.w3.org/2000/svg"
 width="1200.000000pt" height="1200.000000pt" viewBox="0 0 1200.000000 1200.000000"
 preserveAspectRatio="xMidYMid meet">
<metadata>
Created by potrace 1.11, written by Peter Selinger 2001-2013
</metadata>
<g transform="translate(0.000000,1200.000000) scale(0.100000,-0.100000)"
fill="#000000" stroke="none">
<path d="M880 11484 c-184 -49 -332 -202 -369 -382 -8 -38 -11 -1465 -11
-5105 0 -5538 -5 -5099 57 -5227 33 -68 128 -165 205 -208 116 -67 -310 -62
5243 -62 5621 0 5117 -6 5246 70 118 70 199 179 234 315 13 53 15 609 15 5112
0 3640 -3 5067 -11 5105 -34 164 -160 308 -325 370 l-59 23 -5085 2 c-4435 2
-5092 0 -5140 -13z m5617 -5056 l-3 -2153 -22 -110 c-75 -384 -193 -617 -432
-855 -143 -144 -258 -226 -423 -305 -314 -151 -662 -210 -1084 -185 -623 37
-1055 247 -1347 654 -157 219 -249 515 -272 874 l-7 112 376 0 375 0 7 -87
c40 -543 322 -863 822 -934 126 -17 407 -7 512 20 331 84 582 321 685 647 32
101 43 163 56 299 6 70 10 850 10 2143 l0 2032 375 0 375 0 -3 -2152z m2083
-693 l0 -2845 -375 0 -375 0 0 2838 c0 1561 3 2842 7 2845 3 4 172 7 375 7
l368 0 0 -2845z"/>
</g>
</svg>
